# xmcd CD database file
#
# Track frame offsets:
#	150
#	14952
#	29655
#	48475
#	62945
#	84870
#	106552
#	122477
#	143385
#	161565
#	187797
#
# Disc length: 2830 seconds
#
# Revision: 3
# Processed by: cddbd v1.5.1PL2 Copyright (c) Steve Scherf et al.
# Submitted via: CDex 1.60beta1-cs1
#
DISCID=860b0c0b
DTITLE=Keith Richards - Talk Is Cheap
DYEAR=1988
DGENRE=Rock
TTITLE0=Big Enough
TTITLE1=Take It So Hard
TTITLE2=Struggle
TTITLE3=I Could Have Stood You Up
TTITLE4=Make No Mistake
TTITLE5=You Don't Move Me
TTITLE6=How I Wish
TTITLE7=Rockawhile
TTITLE8=Whip It Up
TTITLE9=Locked Away
TTITLE10=It Means A Lot
EXTD=YEAR: 1988
EXTT0=
EXTT1=
EXTT2=
EXTT3=
EXTT4=
EXTT5=
EXTT6=
EXTT7=
EXTT8=
EXTT9=
EXTT10=
PLAYORDER=
